<svg width="20" height="20" viewBox="0 0 20 20" fill="none" xmlns="http://www.w3.org/2000/svg">
<circle cx="9.99995" cy="9.99995" r="9.54626" fill="white" stroke="#C4C4C4" stroke-width="0.444012"/>
<path d="M13.6604 7.4034L13.6606 7.40368C14.0793 8.2612 13.9391 9.265 13.0786 10.4486L13.0779 10.4495C12.4037 11.3829 11.431 12.3264 10.0013 13.4423C8.57021 12.3245 7.59871 11.3727 6.92342 10.4479C6.06058 9.26461 5.92059 8.26102 6.33924 7.40368L6.33938 7.4034C6.61476 6.83824 7.45254 6.32143 8.48105 6.6161C8.97118 6.75776 9.3988 7.06142 9.69409 7.47749L9.9999 7.90839L10.3057 7.47749C10.6011 7.06131 11.0288 6.75761 11.5191 6.61599L11.5201 6.61571C12.5436 6.31709 13.3844 6.83685 13.6604 7.4034Z" stroke="#C4C4C4" stroke-width="0.75"/>
</svg>
