<svg width="54" height="82" viewBox="0 0 54 82" fill="none" xmlns="http://www.w3.org/2000/svg">
<path fill-rule="evenodd" clip-rule="evenodd" d="M53.4745 59.9935C53.6425 59.5215 53.7696 59.0359 53.8544 58.5422H53.853C53.8885 58.2645 53.8997 57.9844 53.8865 57.7048C53.8748 57.0459 53.8253 56.802 53.6172 56.3739C53.2533 55.6337 52.5474 55.3391 51.8705 55.6482C51.4994 55.818 51.2156 56.1199 50.9565 56.6235C50.6625 57.1939 50.5475 57.5451 50.2433 58.8121C50.1327 59.2766 49.9813 59.831 49.91 60.0458C49.6014 60.963 49.2128 61.5522 48.7281 61.8425C48.6278 61.9166 48.5048 61.9535 48.3802 61.947C48.1735 61.947 48.0382 61.886 47.7776 61.6756C47.2667 61.2649 46.3687 60.0066 45.8665 58.9994C45.6031 58.4711 45.5157 58.3376 45.3702 58.1736C45.3134 58.1126 45.2988 58.0473 45.2668 57.712C45.1737 56.728 44.9772 55.3957 44.7894 54.4886C44.3935 52.5642 43.558 50.3277 42.4606 48.2479C41.8609 47.1115 40.8246 45.2756 40.4156 44.6269C40.3321 44.5009 40.26 44.3679 40.2001 44.2292C40.1565 44.0841 40.091 43.3497 40.0109 42.2714C39.8741 40.4354 39.8465 40.1132 39.7882 39.7098C39.7146 39.2126 39.5947 38.7233 39.4302 38.2483C39.2701 37.8477 39.1973 37.6315 39.2148 37.6039C39.2522 37.5749 39.2953 37.5541 39.3414 37.5429C39.7578 37.3802 40.1312 37.1245 40.433 36.7955C40.9468 36.2469 41.1579 35.7302 41.3937 34.4516C41.5125 33.7799 41.5868 33.1012 41.6164 32.4197C41.7212 30.832 41.7925 30.356 42.0734 29.3807C42.1622 29.0788 42.3849 28.4141 42.5697 27.9177C43.1301 26.4127 43.3353 25.7175 43.5129 24.7393C43.6818 23.8047 43.7283 22.8323 43.6323 22.243C43.4752 21.4424 43.2492 20.6568 42.9569 19.8948C42.7391 19.2933 42.4799 18.7075 42.1811 18.1416C41.8601 17.5365 41.5913 16.9054 41.3777 16.2549C40.9206 14.8508 40.5363 13.4242 40.2263 11.9807C40.0255 10.9488 39.9614 10.6484 39.8537 10.2043C39.4244 8.44092 38.6806 7.13617 37.5831 6.21893C37.1319 5.84304 36.7898 5.5876 35.9995 5.0361C35.3927 4.62397 34.8096 4.17819 34.2529 3.70088C33.2328 2.80893 32.1533 1.98704 31.0216 1.24088C30.181 0.697534 29.2413 0.324696 28.2561 0.143676C26.9985 -0.0885366 26.2795 -0.0116163 24.4717 0.551499C24.0263 0.689375 23.316 0.889658 22.8954 0.995605C21.4617 1.35408 20.8315 1.55001 20.1037 1.8664C18.9014 2.38743 17.6468 3.27129 16.149 4.6515C15.7275 5.03359 15.3339 5.44538 14.9715 5.88368C14.3005 6.67755 13.8784 7.3829 13.3835 8.55267C12.8887 9.72244 12.4666 10.6005 12.1842 11.046C11.9884 11.387 11.7325 11.6898 11.4288 11.9401C10.9245 12.3453 10.4831 12.8226 10.1188 13.3566C9.69128 14.0078 9.2987 14.6812 8.94273 15.3739C8.22225 16.8151 7.77249 18.4739 7.5527 20.5058C7.4857 21.3902 7.48083 22.2781 7.53815 23.1632C7.67642 24.4113 7.8671 25.0934 8.79572 27.6623C9.37793 29.2718 9.4609 29.5403 9.752 30.6099C10.0531 31.7119 10.2874 32.831 10.4536 33.9611C10.5787 34.7851 10.7497 35.6015 10.9659 36.4065L11.0678 36.752L10.8931 36.9595C10.1887 37.7955 9.66031 38.7896 9.02424 40.4746C8.45861 42.0427 7.98525 43.6424 7.60656 45.2654C7.5396 45.5601 7.3533 46.2625 7.19319 46.8285C6.774 48.3045 6.39265 49.8226 6.09281 51.2202C5.87448 52.2333 5.34467 55.2651 5.25152 56.0343C5.09869 57.2999 5.07249 57.757 5.04483 59.5175C5.01718 61.2779 5.00553 61.4202 4.80758 62.3853C4.59508 63.4186 4.4044 63.8511 3.99394 64.2328C3.91389 64.3069 3.73777 64.4651 3.5995 64.5855C2.79739 65.2925 2.04413 66.0528 1.34489 66.8612C0.55017 67.851 0.0567471 68.9918 0.104779 69.7377C0.123701 70.057 0.186289 70.295 0.414806 70.9278C0.570406 71.3235 0.670804 71.7386 0.713189 72.1614C0.781599 72.7507 0.906774 73.0642 1.20516 73.3936C1.56322 73.7869 2.02898 74.0279 2.83098 74.2325C3.80327 74.4807 4.51648 74.4952 5.64742 74.2891C6.23839 74.2048 6.81609 74.0453 7.3664 73.8145C7.46974 73.7724 6.99524 74.427 6.64737 74.8058C6.26135 75.2267 5.89839 75.668 5.56009 76.1279C5.25316 76.5867 5.0377 77.1002 4.92548 77.6402C4.83777 78.2325 4.81677 78.8327 4.86289 79.4297C4.94004 80.0959 4.97642 80.1699 5.38834 80.4964C6.01421 80.9913 6.8133 81.3164 7.81179 81.4833C8.46532 81.5922 10.292 81.8244 10.7418 81.8549C11.5969 81.9171 12.4563 81.882 13.3035 81.7504C14.8449 81.5138 15.5217 81.3179 16.2305 80.8999C17.2858 80.2787 17.9801 79.437 18.4575 78.199C18.8578 77.154 18.9611 76.4327 19.0033 74.292C19.0295 72.9306 19.0441 72.742 19.162 72.2805C19.218 72.0615 19.2866 71.8458 19.3672 71.6346L19.536 71.6898C19.8723 71.8059 20.635 71.8697 21.6538 71.8697C22.3321 71.8697 22.6785 71.832 23.6421 71.6491C24.0307 71.5751 24.7454 71.4634 25.2315 71.398C25.7177 71.3327 26.2679 71.2457 26.4542 71.205C27.0946 71.0642 28.2241 70.6564 29.3245 70.1702C30.0192 69.8782 30.6694 69.4902 31.2559 69.0179L31.4917 68.8147L31.6169 68.8989C31.6824 68.9453 31.8454 69.0396 31.9735 69.1093C32.5544 69.4563 33.0729 69.8978 33.5076 70.4155C33.8424 70.877 33.9443 71.2616 34.0986 72.6186C34.231 73.7797 34.3387 74.2746 34.6298 75.0002C34.9792 75.8783 35.2121 76.321 35.9602 77.5183C37.129 79.3891 37.6603 80.0523 38.3545 80.5124C39.1609 81.045 39.8028 81.209 41.088 81.209C41.7405 81.2046 42.3926 81.2433 43.0399 81.3251C44.0748 81.4703 44.641 81.4703 45.9087 81.3251C47.5025 81.1495 48.4355 80.9158 49.0628 80.5327C49.5665 80.2236 50.0468 79.7766 50.2607 79.4152C50.4893 79.0277 50.5518 78.659 50.4776 78.1308C50.3786 77.4269 50.0017 76.572 49.4194 75.7636C48.8707 74.9959 48.6014 74.7419 48.255 74.665C47.8722 74.5808 47.143 73.9509 46.7675 73.382C46.2915 72.6622 46.1547 72.1934 45.8054 70.0948C45.5652 68.6521 45.5055 68.2109 45.4517 67.4664C45.4342 67.2327 45.4124 66.9497 45.4036 66.838L45.3862 66.6362L45.4983 66.7248C46.2289 67.3024 47.2842 67.314 48.3758 66.7552C49.9041 65.973 51.5416 64.1066 52.7235 61.7845C53.0235 61.2094 53.2747 60.6103 53.4745 59.9935ZM52.6129 57.0618C52.649 57.1917 52.6748 57.3242 52.69 57.458L52.6886 57.461C52.7875 58.3143 52.4615 59.5799 51.7774 60.9978C51.0496 62.5072 50.0468 63.9063 49.0366 64.8221C48.159 65.616 47.469 65.9744 46.8126 65.9744C46.6665 65.988 46.5196 65.9566 46.3919 65.8845C46.1285 65.7509 45.8869 65.481 45.6918 65.079C45.2814 64.2314 45.1635 63.1893 45.2814 61.3491L45.2868 61.2635L45.2869 61.2611C45.308 60.9247 45.3265 60.6297 45.3265 60.5857C45.3294 60.5058 45.3323 60.5029 45.3643 60.5537C45.5317 60.8121 46.0907 61.5856 46.3134 61.8599C47.0324 62.7481 47.6786 63.1502 48.3875 63.1502C48.7911 63.1456 49.1821 63.0095 49.501 62.7626C50.0948 62.3592 50.5679 61.6872 50.9376 60.7308C51.102 60.3041 51.1734 60.053 51.4383 58.9703C51.6813 57.9689 51.7789 57.6627 51.9724 57.2578C52.0976 57.0009 52.3116 56.7222 52.3887 56.7222C52.4426 56.7222 52.5605 56.9007 52.6129 57.0618ZM49.2608 78.1554C49.2424 78.0534 49.2176 77.9525 49.1866 77.8535L49.1531 77.7679L49.0541 77.9131C48.7732 78.3296 48.3482 78.4631 47.846 78.2918C47.7755 78.2624 47.7009 78.2438 47.6248 78.2367C47.616 78.2454 47.6146 78.527 47.6248 78.8738C47.6335 79.4355 47.6248 79.5139 47.5753 79.6706C47.5507 79.73 47.5345 79.7925 47.5273 79.8564C47.7595 79.8053 47.9866 79.7329 48.2055 79.6401C48.5811 79.4747 49.1109 79.0393 49.2448 78.7882C49.319 78.6431 49.3263 78.4544 49.2681 78.1525L49.2608 78.1554ZM47.6204 75.7303C48.0323 75.9625 48.1386 76.0713 48.1779 76.2527C48.2228 76.4993 48.2188 76.7522 48.1662 76.9973L48.124 77.1337L47.9101 77.0582C47.6548 76.9455 47.3625 76.9519 47.1124 77.0756C46.702 77.273 46.4589 77.7171 46.3934 78.3818L46.3701 78.6155L46.0324 78.2498C45.5128 77.6866 45.2639 77.4515 45.0878 77.3557C44.9644 77.2809 44.8193 77.2497 44.6759 77.2672C44.439 77.2426 44.2054 77.3373 44.0529 77.5197C43.8317 77.7403 43.6628 78.1409 43.5406 78.7214C43.5129 78.8579 43.4838 78.9783 43.4838 78.9783C43.3952 78.9041 43.3106 78.8251 43.2305 78.7418C42.8084 78.3238 42.4897 78.2338 42.0341 78.4036C41.8041 78.4892 41.5625 78.6808 41.0371 79.1931C40.5407 79.6764 40.417 79.7635 40.1812 79.794C39.8862 79.7951 39.5924 79.756 39.3079 79.6779C38.928 79.5647 38.4157 79.064 37.8073 78.1932C37.5074 77.7665 36.5264 76.2005 36.2891 75.7651C35.914 75.0781 35.6275 74.3467 35.4362 73.5881C35.4071 73.4328 35.3401 72.9568 35.2907 72.5286C35.1087 70.9612 34.9763 70.4706 34.5396 69.8292C34.2503 69.4079 33.8927 69.0376 33.4814 68.7334C33.1646 68.4672 32.8235 68.231 32.4626 68.0281L32.317 67.9468V67.7523C32.319 67.6277 32.3341 67.5037 32.3621 67.3822C32.3959 67.2306 32.4197 67.0769 32.4335 66.9221C32.448 66.7654 32.5397 66.2647 32.6387 65.8075C33.1787 63.3098 33.25 62.6364 33.1991 60.545C33.1871 59.7044 33.1181 58.8655 32.9924 58.0342C32.7173 55.9414 32.5252 55.088 31.9007 53.1592C31.5645 52.123 31.4 51.8254 31.074 51.6629C30.8927 51.5723 30.6816 51.5612 30.4918 51.6324C30.3295 51.7144 30.1946 51.8414 30.1032 51.9982C29.7436 52.7035 29.5049 55.567 29.5981 58.1794C29.6694 60.2069 29.8062 61.4318 30.1192 62.8933C30.268 63.6865 30.5002 64.4619 30.812 65.2067C31.0624 65.8308 31.1773 66.2313 31.2079 66.5434C31.2289 66.8663 31.1662 67.1891 31.026 67.4809C30.8076 67.9018 30.2007 68.4011 29.3943 68.8219C28.5385 69.2675 26.8748 69.9046 26.1572 70.0599C26.019 70.0904 25.5415 70.1615 25.1049 70.2196C24.3483 70.318 24.247 70.3365 23.6861 70.4388L23.431 70.4852C22.3321 70.6927 22.0628 70.7145 21.1022 70.6738C20.4108 70.6448 19.9814 70.61 19.9509 70.5795C20.0195 70.3947 20.0987 70.2139 20.1881 70.0382C20.8518 68.6304 21.1211 67.6986 21.207 66.5071C21.2739 65.5855 21.0935 64.0964 20.7121 62.4245C20.6288 62.1327 20.58 61.8321 20.5666 61.529L20.5662 61.5181C20.5578 61.256 20.5559 61.1955 20.4123 60.7932C20.0938 59.8196 19.8744 58.8165 19.7573 57.7991C19.5972 56.4145 19.5608 55.7426 19.5215 53.4524C19.4735 50.6412 19.4298 49.3669 19.3279 47.7704C19.2377 46.3539 19.1445 45.9897 18.8185 45.7603C18.7178 45.6825 18.5889 45.6503 18.4633 45.6718C18.3403 45.6531 18.2147 45.6822 18.1125 45.7531C17.9364 45.8692 17.8258 46.039 17.7283 46.3438C17.4794 47.1231 17.1796 48.8865 17.034 50.4481C16.8883 52.3484 16.8975 54.2574 17.0617 56.1562C17.3222 59.413 17.3833 59.9122 17.6206 60.664L17.6253 60.6813L17.6254 60.6816L17.6254 60.6816L17.6254 60.6817C17.6618 60.8139 17.7426 61.1082 17.7996 61.3549C17.9524 62.008 18.4051 63.722 18.5827 64.3199C18.9466 65.5448 19.0499 66.0862 19.0717 66.8859C19.1067 68.1732 18.9247 69.1122 18.2115 71.2979C17.8447 72.4227 17.8171 72.6244 17.7836 74.411C17.7545 75.9683 17.7196 76.379 17.558 77.0669C17.4896 77.3528 17.4707 77.3978 17.379 77.4777C17.2702 77.5909 17.1728 77.7144 17.0879 77.8463C16.7225 78.4022 15.9642 79.167 15.5799 79.3658C15.3097 79.5068 15.0205 79.608 14.7212 79.6663C14.2219 79.6663 13.2656 78.659 12.9876 77.839C12.893 77.5575 12.8188 77.4472 12.6732 77.3645C12.456 77.2234 12.1703 77.2479 11.9804 77.424C11.7854 77.5938 11.7577 77.7258 11.8014 78.2948C11.8213 78.5361 11.8276 78.7784 11.8203 79.0204C11.7897 79.4471 11.6442 80.0015 11.5845 79.9827C11.5248 79.9638 11.308 79.5748 11.1231 79.1539C11.0241 78.929 10.8553 78.5647 10.749 78.3484C10.658 78.1211 10.5207 77.9151 10.3459 77.7433C9.91648 77.3079 9.41141 77.2063 8.92235 77.453C8.67534 77.6042 8.47412 77.8193 8.34014 78.0756C8.31454 78.1384 8.2813 78.1979 8.24117 78.2527C8.17113 78.1727 8.10693 78.0878 8.04904 77.9987C7.84263 77.692 7.58691 77.4213 7.29216 77.1976C7.08068 77.0595 6.83157 76.9901 6.57896 76.9987C6.5244 77.0063 6.46905 77.0063 6.41448 76.9987C6.41448 76.9232 7.10004 76.0728 7.5789 75.5474C8.34462 74.6996 8.88551 73.6744 9.15233 72.5649C9.47254 71.2906 9.64575 69.3009 9.57297 67.7262C9.47545 65.5971 9.24548 63.7336 8.57012 59.5988C8.32006 58.1405 8.14614 56.6702 8.04904 55.194C7.98645 54.3566 7.96025 51.7964 8.00537 50.9053C8.06164 49.7441 8.19046 48.5876 8.39109 47.4424L8.3942 47.4246C8.47798 46.9454 8.52771 46.661 8.59187 46.3798C8.68562 45.969 8.81016 45.5652 9.11668 44.5715L9.11885 44.5645C9.22035 44.2193 9.34874 43.7959 9.44777 43.4693C9.49075 43.3276 9.52819 43.2041 9.55551 43.1131C9.64575 42.8127 9.77966 42.4121 9.85389 42.2322C10.0489 41.7547 10.0548 41.7271 10.014 41.5196L9.97906 41.3396L10.1596 40.8578C10.4084 40.1878 10.6946 39.5322 11.0169 38.8941C11.3007 38.3339 11.5889 37.8376 11.6296 37.8376C11.6807 37.8792 11.7253 37.9281 11.7621 37.9827C12.2232 38.5515 12.8424 38.9721 13.5422 39.1916C13.9171 39.2738 14.305 39.2788 14.6819 39.2062C15.5741 39.003 16.561 38.2715 17.3528 37.2251C18.178 36.1337 18.9364 34.3631 19.1314 33.0685C19.1864 32.5962 19.1898 32.1193 19.1416 31.6462C19.1247 31.5612 19.1179 31.4745 19.1212 31.3879C19.1947 31.4144 19.2631 31.4532 19.3235 31.5025C20.0193 31.9858 21.2055 32.2978 21.9741 32.1977C22.4647 32.1302 22.9309 31.9422 23.3306 31.6505C23.4136 31.593 23.5002 31.5407 23.5897 31.4938C23.5999 31.4938 23.7498 31.5794 23.9245 31.6839C24.4659 32.009 24.8531 32.1193 25.7759 32.2137C26.8419 32.303 27.9151 32.2444 28.9649 32.0395C29.6659 31.8679 30.3576 31.661 31.0376 31.4198C31.1374 31.3739 31.2418 31.3389 31.3491 31.3153C31.4177 31.3036 31.4837 31.28 31.5441 31.2456C31.6635 31.1818 31.713 31.1731 32.0856 31.1731C32.4717 31.1863 32.8555 31.1093 33.2063 30.9481C33.4847 30.8376 33.7448 30.6859 33.9778 30.4982L34.1379 30.3676L34.1175 30.4822C33.9463 31.4014 33.8571 32.3339 33.8511 33.2688C33.8497 33.9741 33.8541 34.0133 33.9297 34.2963C34.0957 34.9117 34.4028 35.424 35.0039 36.0945L35.2208 36.3354L35.1 36.5343C35.0206 36.673 34.9543 36.8187 34.902 36.9697C34.833 37.1726 34.8067 37.3875 34.8249 37.601C34.8123 37.8527 34.8438 38.1046 34.918 38.3455C35.123 39.0678 35.4319 39.7566 35.835 40.3904C36.2455 41.0653 36.589 41.5326 37.6734 42.8867C38.5772 44.0159 39.0328 44.6501 39.0619 44.8199C39.2395 45.8561 39.5306 46.843 40.2584 48.8052C41.1608 51.258 41.6411 52.6759 42.2131 54.5714C42.6163 55.9051 43.0806 57.5654 43.2582 58.2911C43.7653 60.4147 44.0506 62.5848 44.1097 64.7669C44.1781 66.7741 44.2349 67.7204 44.3324 68.5259C44.4066 69.0962 44.8142 71.5272 44.9146 71.9626C45.0594 72.7026 45.3471 73.4075 45.7617 74.038C46.2741 74.8014 46.7136 75.202 47.6204 75.7303ZM46.1241 79.9464C45.7652 79.689 45.4378 79.3904 45.1489 79.0567C45.0372 78.9267 44.9176 78.8036 44.7909 78.6881C44.7632 78.6881 44.7035 78.9435 44.6002 79.511C44.5664 79.7067 44.5222 79.9005 44.4677 80.0915L44.4139 80.2453H44.4954C44.7734 80.2453 46.2944 80.1002 46.293 80.0726C46.2428 80.0242 46.1871 79.9818 46.127 79.9464H46.1241ZM42.2422 50.5425C42.8685 51.9257 43.3395 53.3738 43.6468 54.8602C43.7123 55.1911 43.7647 55.4581 43.7647 55.4842C43.7647 55.5104 43.5988 54.985 43.3994 54.3232C43.0108 53.0388 42.5785 51.7108 42.2015 50.6397C42.0734 50.2783 41.973 49.9823 41.9788 49.9721C41.9827 49.9653 42.0349 50.0816 42.113 50.2559C42.1508 50.3403 42.1948 50.4383 42.2422 50.5425ZM42.577 79.7925C42.5217 79.7096 42.4546 79.6353 42.3776 79.5719C42.2099 79.7042 42.0531 79.8498 41.9089 80.0073C42.0245 80.0366 42.1434 80.0512 42.2626 80.0509C42.4577 80.0625 42.6585 80.0784 42.7095 80.0886L42.7127 80.0892C42.7487 80.0963 42.7725 80.101 42.7792 80.0924C42.7922 80.0755 42.7394 80.0075 42.5831 79.8061L42.577 79.7983V79.7925ZM41.6935 19.9354C42.0792 20.9035 42.4096 22.0399 42.4664 22.5899L42.4679 22.587C42.5406 23.3011 42.4169 24.3562 42.1258 25.4897C41.9302 26.1918 41.6975 26.8831 41.4286 27.5607C41.0932 28.4125 40.8312 29.2914 40.6455 30.1876C40.538 30.8149 40.4714 31.4486 40.4461 32.0845C40.3486 33.546 40.2904 34.0104 40.1041 34.842C39.9643 35.4661 39.8363 35.7172 39.4855 36.0626C39.2564 36.2937 38.9627 36.4505 38.6427 36.5125L38.4157 36.5589L38.1857 36.3572C37.9649 36.1476 37.7112 35.9755 37.4346 35.8478C37.149 35.7017 36.8294 35.6345 36.5089 35.6533L36.2673 35.6693L35.9442 35.334C35.461 34.8333 35.1975 34.4037 35.0956 33.9727C34.9937 33.5416 35.1073 31.7826 35.3052 30.7536C35.3232 30.6607 35.35 30.5099 35.381 30.3349L35.3811 30.3346L35.3811 30.3345C35.4204 30.1131 35.4666 29.8532 35.5104 29.623C35.5456 29.4385 35.584 29.2281 35.6203 29.0295L35.6205 29.0284L35.6206 29.0279C35.6652 28.7834 35.7065 28.5568 35.7346 28.4184C35.7874 28.2221 35.8124 28.0194 35.8088 27.8161C35.8007 27.6502 35.8244 27.4842 35.8787 27.327C36.0139 26.8106 36.0814 26.2788 36.0796 25.7451C36.0562 25.3148 35.9729 24.8898 35.8321 24.4824C35.6574 23.8787 35.6167 23.6682 35.6167 23.2982C35.6167 22.9281 35.6604 22.6784 35.8962 21.6785C35.9995 21.2416 36.1232 20.68 36.1727 20.4303C36.4559 18.99 36.5504 17.5191 36.4536 16.0546C36.3744 15.293 36.3783 14.5251 36.4653 13.7644C36.534 13.371 36.5759 12.9734 36.5904 12.5743C36.6385 11.7775 36.5584 11.1534 36.3721 10.9067C36.1232 10.5787 35.6327 10.5657 35.4187 10.8835C35.3052 11.0504 35.2877 11.1738 35.3372 11.4321C35.3605 11.5584 35.3896 11.7645 35.3998 11.8893L35.4187 12.1157L35.3052 12.0576C35.2509 12.0282 35.1917 12.0085 35.1305 11.9996C35.0362 11.973 34.9464 11.9324 34.8642 11.8791C34.4581 11.6411 34.2369 11.5482 33.4669 11.2884C32.317 10.9024 31.8105 10.7935 31.4291 10.853C31.2279 10.8765 31.0355 10.9488 30.8688 11.0635C30.762 11.1253 30.6481 11.174 30.5296 11.2086C30.2372 11.2856 29.9673 11.4309 29.7422 11.6324C29.3769 11.9967 28.9096 13.1984 28.7481 14.1882C28.715 14.5296 28.7038 14.8728 28.7146 15.2157C28.7075 16.4084 28.8147 17.5991 29.0348 18.7715C29.1343 19.4277 29.2802 20.0762 29.4715 20.7119C29.6549 21.3505 29.7378 21.6886 29.7189 21.7075C29.6687 21.7072 29.6191 21.6964 29.5734 21.6756C29.0625 21.4956 28.0378 21.3984 27.2241 21.4535C25.9636 21.5377 25.4688 21.6843 24.8414 22.1574C24.7581 22.2286 24.6668 22.29 24.5693 22.3403C24.5693 22.3301 24.6086 22.1284 24.6566 21.8947C24.777 21.3982 24.8366 20.8889 24.8342 20.3781C24.8441 19.6306 24.7505 18.8853 24.5562 18.1634C24.2471 16.968 23.7599 15.8257 23.1108 14.7745C22.7235 14.1508 22.2659 13.5733 21.747 13.0532C21.5929 12.898 21.4472 12.7347 21.3103 12.5641C21.0981 12.2813 20.8572 12.0211 20.5913 11.7877C20.2676 11.5575 19.9082 11.3819 19.5273 11.2681C19.051 11.1623 18.5531 11.2132 18.1082 11.4132C17.7612 11.5575 17.4312 11.7396 17.1242 11.956C16.3502 12.4334 15.709 13.0971 15.2597 13.8863C15.1447 14.075 15.0676 14.1795 15.0792 14.1287C15.0981 14.0459 15.2029 13.6396 15.3703 13.0082C15.4679 12.6353 15.4941 12.2826 15.4358 12.0983C15.4066 11.9991 15.3856 11.8976 15.3732 11.7949C15.3545 11.6137 15.2442 11.4546 15.0808 11.3731C14.9174 11.2917 14.7235 11.2991 14.5669 11.3929C14.3253 11.5148 13.9745 11.9314 13.3719 12.8109C12.8101 13.6309 12.6092 14.043 12.4345 14.7295C12.2871 15.2829 12.2901 15.8655 12.4433 16.4174C12.5743 16.9384 12.7446 17.3013 13.1812 18.0269C13.5931 18.7047 13.6135 18.7715 13.8508 20.1778C14.1317 21.8381 14.3063 22.3969 15.1185 24.1994C15.3732 24.7654 15.7051 25.5317 15.855 25.9033C16.0049 26.2748 16.2204 26.777 16.3339 27.0194C17.1373 28.7392 17.3426 29.2442 17.574 30.0454C17.8913 31.1411 17.9859 31.6854 17.9859 32.3501C17.993 32.8365 17.9141 33.3204 17.753 33.7796C17.5103 34.5381 17.1858 35.268 16.7851 35.9566C16.0311 37.1757 14.9264 38.0712 14.1652 38.0712C13.6761 38.0712 13.0983 37.736 12.682 37.212C12.2162 36.6242 12.0052 35.9145 11.6093 33.5924C11.4365 32.4576 11.1934 31.3346 10.8815 30.2297C10.6064 29.192 10.4769 28.8117 9.87863 27.1601C8.80446 24.1936 8.66181 23.5333 8.69529 21.6828C8.73459 19.5508 9.19745 17.5204 10.0169 15.8862C10.244 15.4363 10.7912 14.4842 11.0198 14.1446C11.3012 13.7217 11.6402 13.3397 12.027 13.0097C12.4393 12.6849 12.7961 12.2958 13.0837 11.8573C13.4811 11.2579 13.8479 10.5163 14.4621 9.08095C14.8755 8.11727 15.1418 7.62817 15.5654 7.0607C16.5726 5.71097 18.6729 3.92003 20.0993 3.19437C20.8999 2.78799 21.6276 2.54562 23.2287 2.1436C23.6465 2.03911 24.3524 1.84608 24.7978 1.70095C25.9345 1.34537 26.3217 1.2583 26.9039 1.22637C27.8602 1.17412 29.1178 1.50647 30.0697 2.06088C31.2179 2.78063 32.3085 3.58805 33.3315 4.47589C34.0077 5.06672 34.7209 5.61402 35.4668 6.11444C36.6865 6.96201 37.2687 7.48159 37.6792 8.08534C38.3138 9.01419 38.6107 9.87483 38.9891 11.8733C39.3166 13.6004 40.0575 16.2621 40.5378 17.4391C40.6237 17.6496 40.8799 18.204 41.1113 18.6728C41.3427 19.1416 41.6033 19.709 41.6935 19.9354ZM38.7286 41.2308C38.6165 39.6749 38.5438 39.2773 38.2294 38.4515C38.0154 37.8898 37.9761 37.8143 37.8829 37.7766C37.8378 37.7592 37.749 37.72 37.6835 37.691C37.5539 37.6394 37.4212 37.5957 37.2862 37.5603C37.0533 37.4886 36.8269 37.3973 36.6094 37.2875L36.1887 37.08C36.1756 37.08 36.132 37.1453 36.0897 37.2382C36.0215 37.3725 35.9996 37.5255 36.0272 37.6736C36.0519 38.1409 36.3692 38.9594 36.8015 39.6749C37.2585 40.4164 37.7698 41.1232 38.3312 41.7895L38.8261 42.4063L38.8087 42.2307C38.7985 42.1335 38.7635 41.685 38.7315 41.2322L38.7286 41.2308ZM35.2004 14.0953C35.1713 14.7267 35.183 15.3593 35.2353 15.9893L35.2368 15.9849C35.2894 16.5217 35.303 17.0615 35.2776 17.6002C35.2312 18.8386 35.0551 20.0688 34.7521 21.2706C34.3184 22.9948 34.3009 23.5275 34.6357 24.6624C34.8176 25.2807 34.8686 25.539 34.8686 25.8525C34.8686 26.835 34.5542 27.7392 33.8351 28.8205C33.4654 29.3763 33.2267 29.6216 32.9254 29.7667C32.6219 29.9415 32.2739 30.0242 31.924 30.0047C31.4568 30.0076 31.2763 29.9554 30.9386 29.7377C30.601 29.52 29.7436 29.012 29.5428 28.9104C28.909 28.5781 28.226 28.3488 27.5196 28.2312C26.6477 28.0977 26.2417 28.1833 25.3494 28.6782C24.7974 28.9989 24.2765 29.3701 23.7935 29.787C23.3867 30.1344 22.9595 30.4572 22.5141 30.7536C22.0818 31.012 21.7892 31.0642 21.2448 30.98C20.6175 30.8828 20.0804 30.6433 19.7544 30.3139C19.1896 29.7435 18.6787 28.7842 18.36 27.6928C18.13 26.9294 17.4183 24.1399 16.9656 22.2851C16.7443 21.378 16.2204 19.4304 16.0079 18.7279L15.6221 17.4551C15.43 16.8209 15.3965 16.6845 15.4096 16.5596C15.4329 16.3318 15.7342 15.519 15.9758 15.0328C16.363 14.252 16.7604 13.7165 17.2538 13.3087L17.5362 13.075L17.558 13.2753C17.5962 13.69 17.7648 14.0822 18.0398 14.3957C18.2901 14.6729 18.5943 14.8369 19.0819 14.9632C19.8688 15.161 20.6935 14.8274 21.1197 14.1388C21.1691 14.0706 21.1706 14.0721 21.4108 14.3957C21.7753 14.8906 22.1106 15.4062 22.4151 15.9399C22.7163 16.5216 22.9703 17.1263 23.1749 17.7483C23.4324 18.4576 23.5796 19.202 23.6115 19.9557C23.6523 20.5885 23.6261 20.886 23.466 21.6843C23.2535 22.7408 23.1836 23.5391 23.2709 23.9454C23.4092 24.5913 23.9579 25.2226 25.0787 26.0208C25.5273 26.3579 26.0375 26.6044 26.5808 26.7465C26.8457 26.8261 27.1227 26.8575 27.3988 26.8394C27.8398 26.8394 27.8864 26.835 28.1062 26.7581C29.0508 26.4301 29.9853 25.5579 30.5063 24.5216C30.6861 24.1846 30.8025 23.8177 30.8498 23.4389C30.8552 23.3194 30.8881 23.2027 30.9459 23.0979C31.0126 22.9878 31.0383 22.8578 31.0187 22.7307C30.9296 21.9089 30.7837 21.0942 30.582 20.2925C30.4176 19.7286 30.2907 19.1546 30.2021 18.5741C29.9931 17.4803 29.8956 16.3682 29.911 15.2549C29.9081 14.4247 29.9125 14.3362 29.9736 14.0648C30.0439 13.7694 30.1324 13.4786 30.2385 13.194C30.2458 13.181 30.2938 13.2753 30.3462 13.403C30.5183 13.8486 30.7948 14.2467 31.1526 14.5641C31.4895 14.8275 31.8973 14.9851 32.3243 15.0169C32.572 14.9978 32.8136 14.9313 33.036 14.821C33.6765 14.4494 33.9094 13.6047 33.6183 12.7456C33.5959 12.6958 33.585 12.6418 33.5862 12.5874C33.6139 12.5612 34.1815 12.85 34.4872 13.046C34.6832 13.1641 34.8559 13.3171 34.9966 13.4973L35.2237 13.7716L35.2004 14.0953ZM32.4262 13.001C32.2708 12.6413 31.941 12.3864 31.5529 12.3261C31.4606 12.3167 31.4225 12.3129 31.4026 12.3301C31.3886 12.3422 31.3837 12.3647 31.3753 12.403C31.2865 12.8065 31.6664 13.5365 32.0739 13.7441C32.2646 13.8413 32.3985 13.8384 32.48 13.7339C32.5353 13.6642 32.5426 13.6236 32.5324 13.4335C32.53 13.2817 32.4921 13.1327 32.4218 12.9981L32.4262 13.001ZM31.2938 55.3115C31.6626 56.9245 31.8954 58.5654 31.9895 60.217L31.9881 60.2156C32.042 61.2 32.0171 62.1871 31.9138 63.1676C31.8454 63.7031 31.7465 64.2445 31.7217 64.2183C31.6708 64.1646 31.4815 63.5057 31.3578 62.947C31.0706 61.6976 30.8967 60.425 30.8382 59.1445C30.7873 58.3405 30.7683 56.1997 30.8062 55.4741C30.8484 54.6512 30.9022 54.0416 30.9284 54.0707C30.9546 54.0997 31.1628 54.8079 31.2938 55.3115ZM29.4263 30.2123C28.9712 29.9523 28.4933 29.7342 27.9985 29.5606C27.622 29.4417 27.229 29.3829 26.8341 29.3865C26.6673 29.3849 26.503 29.4258 26.3566 29.5055C25.7656 29.7948 25.2131 30.1566 24.7119 30.5824L24.5838 30.6956L24.741 30.7754C25.1515 30.9829 25.8909 31.0657 26.984 31.0468C27.9926 31.0236 28.2386 30.9902 29.3623 30.7319C29.7073 30.652 29.9984 30.5867 30.01 30.5867C30.0449 30.5867 29.7931 30.4242 29.4278 30.2152L29.4263 30.2123ZM28.4599 23.4549C28.6842 23.474 28.8972 23.5617 29.0697 23.706V23.7118C29.0966 23.7423 29.116 23.7785 29.1265 23.8177C29.0766 23.9766 28.9966 24.1244 28.8907 24.2531C28.7675 24.3875 28.6023 24.4765 28.422 24.5057C28.3449 24.5057 28.3303 24.4926 28.3027 24.391C28.242 24.1571 28.2223 23.9146 28.2445 23.674C28.2577 23.5827 28.2686 23.4949 28.2715 23.4714L28.2715 23.4713L28.2721 23.4665C28.2736 23.4549 28.3565 23.4462 28.4599 23.4549ZM27.6972 25.5187C27.6207 25.4725 27.5511 25.4159 27.4905 25.3503C27.4564 25.3095 27.4184 25.2721 27.377 25.2386C27.2843 25.3647 27.1997 25.4966 27.1237 25.6333C27.1706 25.6498 27.2196 25.6595 27.2693 25.6624C27.4148 25.6812 27.8049 25.6304 27.8049 25.5942C27.8005 25.5854 27.7554 25.5506 27.6972 25.5201V25.5187ZM25.9607 24.0906C26.1164 24.1211 26.2541 24.2105 26.345 24.3402C26.3748 24.3744 26.3971 24.4145 26.4105 24.4578C26.319 24.6588 26.2063 24.8495 26.0743 25.0267L25.9622 25.182L25.885 25.1326C25.7526 25.047 25.1369 24.571 24.9826 24.4331C24.8851 24.346 24.8458 24.2923 24.8647 24.2734C25.1211 24.1786 25.3843 24.1034 25.6522 24.0485C25.7569 24.0384 25.8626 24.0528 25.9607 24.0906ZM19.7456 63.6465C19.5928 62.812 19.2842 61.5014 19.0514 60.6858C18.9569 60.3415 18.8441 60.0023 18.7137 59.6699C18.7482 60.0384 18.8085 60.404 18.8942 60.7642C19.0397 61.4361 19.6219 63.6247 19.8039 64.2154C19.8752 64.4389 19.8563 64.2488 19.7456 63.6509V63.6465ZM19.2391 13.017C19.401 13.1399 19.5366 13.2938 19.6379 13.4698L19.6408 13.4712L19.7646 13.6802L19.8228 13.7789L19.6903 13.8152C19.5813 13.8472 19.4647 13.8427 19.3585 13.8021C19.0674 13.7296 18.9218 13.6425 18.8316 13.4567C18.7311 13.2463 18.7297 13.014 18.8316 12.9473C18.9567 12.8718 19.0674 12.8849 19.2391 13.017ZM18.4517 56.7585C18.3833 55.9008 18.3498 55.0169 18.3192 53.1374C18.3032 52.1607 18.2799 51.1433 18.2683 50.8763C18.2479 50.4264 18.245 50.4075 18.2261 50.6121C18.1488 51.5423 18.1236 52.4759 18.1504 53.4088C18.1664 54.7862 18.1941 55.3159 18.3221 56.802L18.3891 57.5727H18.4604C18.5288 57.5727 18.5317 57.5727 18.5128 57.4276C18.5026 57.3477 18.475 57.0459 18.4517 56.76V56.7585ZM15.104 20.053C15.1622 20.1168 15.5799 21.6045 15.8317 22.6523L15.8361 22.6581C15.8914 22.8831 15.9365 23.0819 15.9365 23.0935C15.8899 23.0155 15.8496 22.934 15.8157 22.8497C15.5946 22.3162 15.4089 21.7689 15.2597 21.2111C15.162 20.8106 15.0862 20.4051 15.0326 19.9964C15.037 19.9906 15.0705 20.0167 15.104 20.053ZM13.7067 14.6047C13.6617 14.7284 13.6233 14.8543 13.5917 14.982C13.4745 15.4438 13.5004 15.93 13.6659 16.3768C13.6979 16.4639 13.7198 16.503 13.7125 16.4624C13.6248 15.9338 13.6248 15.3945 13.7125 14.8659C13.7649 14.551 13.7649 14.4886 13.7125 14.6091L13.7067 14.6047ZM13.1128 80.0842C13.2249 80.18 13.3821 80.3136 13.4621 80.3745V80.3716C13.5114 80.4111 13.5576 80.4543 13.6004 80.5008C13.3118 80.5607 13.0203 80.6058 12.7271 80.6357H12.6339L12.6907 80.5254C12.7439 80.406 12.7896 80.2834 12.8275 80.1583L12.9076 79.9014L13.1128 80.0842ZM10.4739 80.4761C10.2481 80.0867 10.0483 79.6828 9.87572 79.2671C9.6734 78.7984 9.53076 78.5415 9.46963 78.5415C9.43179 78.5415 9.37939 78.6358 9.32408 78.7911C9.29474 78.9737 9.27675 79.1578 9.27022 79.3426C9.26213 79.5374 9.24073 79.7313 9.20618 79.9231C9.12646 80.1321 8.95463 80.2927 8.74041 80.3585L8.58758 80.4035L9.48564 80.5153C9.97906 80.5762 10.4274 80.6343 10.4798 80.643C10.5322 80.6517 10.5758 80.6517 10.5758 80.643C10.5476 80.5828 10.5145 80.5251 10.4769 80.4703L10.4739 80.4761ZM7.47265 79.2628C7.67058 79.5704 7.88535 79.8669 8.11599 80.151L8.12327 80.1481C8.20237 80.2366 8.30245 80.304 8.41438 80.344C8.61524 80.4035 8.57157 80.4021 8.12327 80.3324C7.54777 80.257 6.98548 80.1027 6.45233 79.8738L6.30677 79.8027V79.4137C6.30677 78.868 6.40138 78.4849 6.59788 78.2527L6.65901 78.1786L6.82057 78.3528C6.90936 78.4486 7.20338 78.8579 7.47265 79.2628ZM8.36489 67.4548C8.25136 65.4549 8.04904 63.8584 7.39114 59.7947C7.08992 58.0418 6.89549 56.2723 6.80893 54.4959C6.81553 54.3625 6.80179 54.2289 6.76818 54.0997C6.70704 54.2651 6.44942 55.9356 6.37227 56.6671C6.27766 57.5669 6.26311 57.876 6.23836 59.4565C6.21216 61.1343 6.19761 61.3592 6.06079 62.1444C5.85265 63.3388 5.58629 64.1342 5.22532 64.6363C4.9112 65.0048 4.56488 65.3448 4.19044 65.6522C3.51399 66.2731 2.87027 66.9286 2.26187 67.6159C2.00338 67.927 1.78346 68.2682 1.60688 68.6318L1.46133 68.9337L1.53993 69.0904C1.58308 69.1746 1.60975 69.2662 1.61853 69.3604C1.63142 69.5234 1.70517 69.6757 1.82521 69.7871L1.91982 69.8829H2.37394C2.73835 69.8597 3.10325 69.9197 3.44084 70.0585C4.10404 70.343 4.65133 70.8427 4.99389 71.4764C5.01871 71.5372 5.05256 71.594 5.09432 71.6448C5.16366 71.5858 5.22748 71.5207 5.285 71.4503C5.51085 71.1963 5.77988 70.9841 6.07971 70.8233C6.73979 70.5048 7.53023 70.6434 8.04176 71.1673L8.17712 71.2979L8.19459 71.2094C8.22807 71.0454 8.34014 70.0178 8.35761 69.6129C8.394 69.0324 8.39545 68.0527 8.35761 67.4504L8.36489 67.4548ZM6.60952 71.9002C6.8507 71.8056 7.12551 71.8877 7.2747 72.099L7.27324 72.0816C7.44499 72.3109 7.37076 72.4474 6.96031 72.6622C6.60952 72.845 6.24273 72.9568 5.57901 73.0816C4.82359 73.2166 4.38694 73.2601 3.95028 73.2166C3.08424 73.1295 2.3099 72.8755 2.07702 72.5852C1.96203 72.4459 1.93146 72.3371 1.87033 71.848C1.84559 71.6535 1.80192 71.3951 1.77281 71.2747L1.71896 71.0541H2.25022C2.72327 71.057 2.80187 71.0642 2.94742 71.1208C3.33208 71.2907 3.65881 71.5686 3.88769 71.9205L3.89006 71.926C3.92371 72.0038 4.00559 72.193 4.06526 72.3559C4.19772 72.7173 4.29815 72.8726 4.47572 72.9844C4.74791 73.1556 4.97497 73.1614 5.30101 73.0018C5.45384 72.9336 5.59211 72.8174 5.99675 72.4212C6.18557 72.2303 6.39059 72.056 6.60952 71.9002Z" fill="#1F314A"/>
</svg>
