<svg width="23" height="23" viewBox="0 0 23 23" fill="none" xmlns="http://www.w3.org/2000/svg">
<circle cx="11.7462" cy="11.2014" r="11" fill="#FF6A6A"/>
<path d="M15.7437 8.44055C15.3866 7.70765 14.3579 7.10801 13.1613 7.45713C12.5895 7.6223 12.0906 7.9765 11.7461 8.46187C11.4017 7.9765 10.9028 7.6223 10.331 7.45713C9.13167 7.11334 8.10561 7.70765 7.74849 8.44055C7.24745 9.46661 7.45533 10.6206 8.36679 11.8705C9.08103 12.8486 10.1018 13.84 11.5835 14.9913C11.6304 15.0279 11.6881 15.0477 11.7474 15.0477C11.8068 15.0477 11.8645 15.0279 11.9114 14.9913C13.3905 13.8427 14.4139 12.8593 15.1281 11.8705C16.0369 10.6206 16.2448 9.46661 15.7437 8.44055Z" fill="white"/>
</svg>
