<svg width="77" height="77" viewBox="0 0 77 77" fill="none" xmlns="http://www.w3.org/2000/svg">
<g opacity="0.3" clip-path="url(#clip0)">
<path d="M64.2109 2.70801H11.9609C5.41287 2.70801 0.0859375 8.03494 0.0859375 14.583V56.1455C0.0859375 62.6936 5.41287 68.0205 11.9609 68.0205H52.4844C54.1241 68.0205 55.4531 66.6915 55.4531 65.0518C55.4531 63.412 54.1241 62.083 52.4844 62.083H41.5499L34.7241 53.2278L56.3548 25.7152L70.9161 41.8091C71.7395 42.72 73.0389 43.0291 74.1847 42.5878C75.3298 42.146 76.0859 41.0449 76.0859 39.8174V14.583C76.0859 8.03494 70.759 2.70801 64.2109 2.70801V2.70801ZM70.1484 32.1114L58.3969 19.1225C57.8102 18.4737 56.9659 18.1154 56.0927 18.1472C55.2189 18.178 54.4025 18.592 53.8615 19.2797L30.9847 48.3769L23.2184 38.3017C22.6566 37.5728 21.788 37.1455 20.8672 37.1455C20.8666 37.1455 20.866 37.1455 20.8654 37.1455C19.9447 37.1461 19.0755 37.574 18.5142 38.304L11.9807 46.7974C10.981 48.0974 11.224 49.961 12.5234 50.9606C13.8234 51.9608 15.687 51.7173 16.6872 50.4179L20.8695 44.9802L34.0532 62.083H11.9609C8.68719 62.083 6.02344 59.4193 6.02344 56.1455V14.583C6.02344 11.3093 8.68719 8.64551 11.9609 8.64551H64.2109C67.4847 8.64551 70.1484 11.3093 70.1484 14.583V32.1114Z" fill="black"/>
<path d="M20.8672 13.3955C15.956 13.3955 11.9609 17.3906 11.9609 22.3018C11.9609 27.213 15.956 31.208 20.8672 31.208C25.7784 31.208 29.7734 27.213 29.7734 22.3018C29.7734 17.3906 25.7784 13.3955 20.8672 13.3955ZM20.8672 25.2705C19.2303 25.2705 17.8984 23.9386 17.8984 22.3018C17.8984 20.6649 19.2303 19.333 20.8672 19.333C22.5041 19.333 23.8359 20.6649 23.8359 22.3018C23.8359 23.9386 22.5041 25.2705 20.8672 25.2705Z" fill="black"/>
<path d="M69.6256 47.6759C69.6169 47.6672 69.6082 47.6579 69.5995 47.6492C68.1963 46.2361 66.3298 45.458 64.3433 45.458C62.3626 45.458 60.5013 46.2315 59.0998 47.6364L53.3682 53.2898C52.201 54.4408 52.1882 56.3206 53.3398 57.4878C54.4907 58.655 56.3706 58.6684 57.5378 57.5168L61.3745 53.7328V70.3955C61.3745 72.0353 62.7035 73.3643 64.3433 73.3643C65.9831 73.3643 67.312 72.0353 67.312 70.3955V53.8233L70.9841 57.6165C71.5663 58.2184 72.3415 58.5205 73.1173 58.5205C73.8613 58.5205 74.6058 58.2428 75.1821 57.685C76.3603 56.5444 76.3905 54.6652 75.25 53.487L69.6256 47.6759Z" fill="black"/>
</g>
<defs>
<clipPath id="clip0">
<rect width="76" height="76" fill="white" transform="translate(0.0859375 0.0361328)"/>
</clipPath>
</defs>
</svg>
